{
  "accessors": [
    {
      "bufferView": 1,
      "componentType": 5126,
      "count": 65532,
      "max": [
        13.190738677978516,
        9.1167354583740234,
        17.664857864379883
      ],
      "min": [
        0,
        2.9937119483947754,
        1.2110738754272461
      ],
      "type": "VEC3"
    },
    {
      "bufferView": 1,
      "byteOffset": 786384,
      "componentType": 5126,
      "count": 65532,
      "max": [
        0.99879807233810425,
        0.99997407197952271,
        0.99927675724029541
      ],
      "min": [
        -0.99999117851257324,
        -0.99999433755874634,
        -0.99921250343322754
      ],
      "type": "VEC3"
    },
    {
      "bufferView": 2,
      "componentType": 5126,
      "count": 65532,
      "max": [
        1,
        0.85098040103912354,
        0.93333333730697632,
        1
      ],
      "min": [
        0.25098040699958801,
        0.070588238537311554,
        0.14509804546833038,
        1
      ],
      "type": "VEC4"
    },
    {
      "bufferView": 0,
      "componentType": 5125,
      "count": 369522,
      "max": [
        65531
      ],
      "min": [
        0
      ],
      "type": "SCALAR"
    },
    {
      "bufferView": 1,
      "byteOffset": 1572768,
      "componentType": 5126,
      "count": 65532,
      "max": [
        13.754986763000488,
        10.677793502807617,
        16.612028121948242
      ],
      "min": [
        3.3152766227722168,
        2.8779568672180176,
        1.4703869819641113
      ],
      "type": "VEC3"
    },
    {
      "bufferView": 1,
      "byteOffset": 2359152,
      "componentType": 5126,
      "count": 65532,
      "max": [
        0.99996292591094971,
        0.99999254941940308,
        0.99767911434173584
      ],
      "min": [
        -0.99995982646942139,
        -0.9994962215423584,
        -0.99996703863143921
      ],
      "type": "VEC3"
    },
    {
      "bufferView": 2,
      "byteOffset": 1048512,
      "componentType": 5126,
      "count": 65532,
      "max": [
        1,
        0.90980392694473267,
        0.93333333730697632,
        1
      ],
      "min": [
        0.27843138575553894,
        0.070588238537311554,
        0.14901961386203766,
        1
      ],
      "type": "VEC4"
    },
    {
      "bufferView": 0,
      "byteOffset": 1478088,
      "componentType": 5125,
      "count": 319485,
      "max": [
        65531
      ],
      "min": [
        0
      ],
      "type": "SCALAR"
    },
    {
      "bufferView": 1,
      "byteOffset": 3145536,
      "componentType": 5126,
      "count": 65532,
      "max": [
        12.417126655578613,
        9.9851436614990234,
        14.583023071289062
      ],
      "min": [
        3.0540919303894043,
        1.8970520496368408,
        0.24245977401733398
      ],
      "type": "VEC3"
    },
    {
      "bufferView": 1,
      "byteOffset": 3931920,
      "componentType": 5126,
      "count": 65532,
      "max": [
        0.99998581409454346,
        0.99998092651367188,
        0.99970954656600952
      ],
      "min": [
        -0.99999523162841797,
        -0.99989587068557739,
        -0.99996703863143921
      ],
      "type": "VEC3"
    },
    {
      "bufferView": 2,
      "byteOffset": 2097024,
      "componentType": 5126,
      "count": 65532,
      "max": [
        0.98823529481887817,
        0.93333333730697632,
        0.93725490570068359,
        1
      ],
      "min": [
        0,
        0,
        0,
        1
      ],
      "type": "VEC4"
    },
    {
      "bufferView": 0,
      "byteOffset": 2756028,
      "componentType": 5125,
      "count": 318243,
      "max": [
        65531
      ],
      "min": [
        0
      ],
      "type": "SCALAR"
    },
    {
      "bufferView": 1,
      "byteOffset": 4718304,
      "componentType": 5126,
      "count": 65532,
      "max": [
        12.139181137084961,
        9.5407371520996094,
        14.862627029418945
      ],
      "min": [
        2.8699550628662109,
        1.1133580207824707,
        0.10870265960693359
      ],
      "type": "VEC3"
    },
    {
      "bufferView": 1,
      "byteOffset": 5504688,
      "componentType": 5126,
      "count": 65532,
      "max": [
        0.99967443943023682,
        0.99976390600204468,
        0.99947422742843628
      ],
      "min": [
        -0.9999040961265564,
        -0.99998718500137329,
        -0.99960333108901978
      ],
      "type": "VEC3"
    },
    {
      "bufferView": 2,
      "byteOffset": 3145536,
      "componentType": 5126,
      "count": 65532,
      "max": [
        0.99607843160629272,
        0.96078431606292725,
        0.96078431606292725,
        1
      ],
      "min": [
        0,
        0,
        0,
        1
      ],
      "type": "VEC4"
    },
    {
      "bufferView": 0,
      "byteOffset": 4029000,
      "componentType": 5125,
      "count": 308571,
      "max": [
        65531
      ],
      "min": [
        0
      ],
      "type": "SCALAR"
    },
    {
      "bufferView": 1,
      "byteOffset": 6291072,
      "componentType": 5126,
      "count": 65534,
      "max": [
        13.025373458862305,
        9.0615444183349609,
        15.694690704345703
      ],
      "min": [
        4.1459336280822754,
        0.15299701690673828,
        0.0018868446350097656
      ],
      "type": "VEC3"
    },
    {
      "bufferView": 1,
      "byteOffset": 7077480,
      "componentType": 5126,
      "count": 65534,
      "max": [
        0.99995505809783936,
        0.99937969446182251,
        0.99991494417190552
      ],
      "min": [
        -0.99991762638092041,
        -0.99998718500137329,
        -0.99991112947463989
      ],
      "type": "VEC3"
    },
    {
      "bufferView": 2,
      "byteOffset": 4194048,
      "componentType": 5126,
      "count": 65534,
      "max": [
        1,
        0.9686274528503418,
        0.93333333730697632,
        1
      ],
      "min": [
        0,
        0,
        0,
        1
      ],
      "type": "VEC4"
    },
    {
      "bufferView": 0,
      "byteOffset": 5263284,
      "componentType": 5125,
      "count": 306606,
      "max": [
        65533
      ],
      "min": [
        0
      ],
      "type": "SCALAR"
    },
    {
      "bufferView": 1,
      "byteOffset": 7863888,
      "componentType": 5126,
      "count": 65532,
      "max": [
        15.119223594665527,
        9.2484617233276367,
        19.054481506347656
      ],
      "min": [
        5.1592459678649902,
        0.5437159538269043,
        0
      ],
      "type": "VEC3"
    },
    {
      "bufferView": 1,
      "byteOffset": 8650272,
      "componentType": 5126,
      "count": 65532,
      "max": [
        0.99987113475799561,
        0.99996095895767212,
        0.99997234344482422
      ],
      "min": [
        -0.99988901615142822,
        -0.99998593330383301,
        -0.99999278783798218
      ],
      "type": "VEC3"
    },
    {
      "bufferView": 2,
      "byteOffset": 5242592,
      "componentType": 5126,
      "count": 65532,
      "max": [
        1,
        0.95686274766921997,
        0.95686274766921997,
        1
      ],
      "min": [
        0,
        0,
        0,
        1
      ],
      "type": "VEC4"
    },
    {
      "bufferView": 0,
      "byteOffset": 6489708,
      "componentType": 5125,
      "count": 325065,
      "max": [
        65531
      ],
      "min": [
        0
      ],
      "type": "SCALAR"
    },
    {
      "bufferView": 1,
      "byteOffset": 9436656,
      "componentType": 5126,
      "count": 65533,
      "max": [
        15.347607612609863,
        9.2481155395507812,
        19.047012329101562
      ],
      "min": [
        0.70940685272216797,
        0.79074382781982422,
        0.055445671081542969
      ],
      "type": "VEC3"
    },
    {
      "bufferView": 1,
      "byteOffset": 10223052,
      "componentType": 5126,
      "count": 65533,
      "max": [
        0.99993407726287842,
        0.99976563453674316,
        0.99986588954925537
      ],
      "min": [
        -0.99991762638092041,
        -0.99999392032623291,
        -0.99993902444839478
      ],
      "type": "VEC3"
    },
    {
      "bufferView": 2,
      "byteOffset": 6291104,
      "componentType": 5126,
      "count": 65533,
      "max": [
        1,
        0.9686274528503418,
        0.96078431606292725,
        1
      ],
      "min": [
        0,
        0,
        0,
        1
      ],
      "type": "VEC4"
    },
    {
      "bufferView": 0,
      "byteOffset": 7789968,
      "componentType": 5125,
      "count": 317451,
      "max": [
        65532
      ],
      "min": [
        0
      ],
      "type": "SCALAR"
    },
    {
      "bufferView": 1,
      "byteOffset": 11009448,
      "componentType": 5126,
      "count": 65532,
      "max": [
        15.335005760192871,
        9.0799016952514648,
        19.05157470703125
      ],
      "min": [
        0.80503654479980469,
        0.085480213165283203,
        0.18755865097045898
      ],
      "type": "VEC3"
    },
    {
      "bufferView": 1,
      "byteOffset": 11795832,
      "componentType": 5126,
      "count": 65532,
      "max": [
        0.9998813271522522,
        0.99876594543457031,
        0.99991911649703979
      ],
      "min": [
        -0.99991428852081299,
        -0.99999433755874634,
        -0.99999195337295532
      ],
      "type": "VEC3"
    },
    {
      "bufferView": 2,
      "byteOffset": 7339632,
      "componentType": 5126,
      "count": 65532,
      "max": [
        1,
        0.98039215803146362,
        0.94509804248809814,
        1
      ],
      "min": [
        0,
        0,
        0,
        1
      ],
      "type": "VEC4"
    },
    {
      "bufferView": 0,
      "byteOffset": 9059772,
      "componentType": 5125,
      "count": 320106,
      "max": [
        65531
      ],
      "min": [
        0
      ],
      "type": "SCALAR"
    },
    {
      "bufferView": 1,
      "byteOffset": 12582216,
      "componentType": 5126,
      "count": 65532,
      "max": [
        16.529918670654297,
        8.6697463989257812,
        16.827503204345703
      ],
      "min": [
        0.92136859893798828,
        0,
        4.1406154632568359
      ],
      "type": "VEC3"
    },
    {
      "bufferView": 1,
      "byteOffset": 13368600,
      "componentType": 5126,
      "count": 65532,
      "max": [
        0.99998044967651367,
        0.99994635581970215,
        0.99991494417190552
      ],
      "min": [
        -0.99991762638092041,
        -0.99994015693664551,
        -0.99999195337295532
      ],
      "type": "VEC3"
    },
    {
      "bufferView": 2,
      "byteOffset": 8388144,
      "componentType": 5126,
      "count": 65532,
      "max": [
        1,
        1,
        1,
        1
      ],
      "min": [
        0,
        0,
        0,
        1
      ],
      "type": "VEC4"
    },
    {
      "bufferView": 0,
      "byteOffset": 10340196,
      "componentType": 5125,
      "count": 343944,
      "max": [
        65531
      ],
      "min": [
        0
      ],
      "type": "SCALAR"
    },
    {
      "bufferView": 1,
      "byteOffset": 14154984,
      "componentType": 5126,
      "count": 16399,
      "max": [
        12.516969680786133,
        8.5884819030761719,
        16.651699066162109
      ],
      "min": [
        0.9745635986328125,
        1.4786829948425293,
        4.0836915969848633
      ],
      "type": "VEC3"
    },
    {
      "bufferView": 1,
      "byteOffset": 14351772,
      "componentType": 5126,
      "count": 16399,
      "max": [
        0.99998044967651367,
        0.99973446130752563,
        0.99795717000961304
      ],
      "min": [
        -0.99992185831069946,
        -0.99998247623443604,
        -0.99999594688415527
      ],
      "type": "VEC3"
    },
    {
      "bufferView": 2,
      "byteOffset": 9436656,
      "componentType": 5126,
      "count": 16399,
      "max": [
        1,
        0.98039215803146362,
        0.93333333730697632,
        1
      ],
      "min": [
        0.0078431377187371254,
        0,
        0,
        1
      ],
      "type": "VEC4"
    },
    {
      "bufferView": 0,
      "byteOffset": 11715972,
      "componentType": 5125,
      "count": 79185,
      "max": [
        16398
      ],
      "min": [
        0
      ],
      "type": "SCALAR"
    }
  ],
  "asset": {
    "extras": {
      "author": "Bema (https://sketchfab.com/Nastya.)",
      "license": "CC-BY-4.0 (http://creativecommons.org/licenses/by/4.0/)",
      "source": "https://sketchfab.com/models/024b3f1d804b4dea9da4534ed0add0f4",
      "title": "Yuna (Fan Art)"
    },
    "generator": "Sketchfab-3.18.5",
    "version": "2.0"
  },
  "bufferViews": [
    {
      "buffer": 0,
      "byteLength": 12032712,
      "byteOffset": 0,
      "name": "floatBufferViews",
      "target": 34963
    },
    {
      "buffer": 0,
      "byteLength": 14548560,
      "byteOffset": 12032712,
      "byteStride": 12,
      "name": "floatBufferViews",
      "target": 34962
    },
    {
      "buffer": 0,
      "byteLength": 9699040,
      "byteOffset": 26581272,
      "byteStride": 16,
      "name": "floatBufferViews",
      "target": 34962
    }
  ],
  "buffers": [
    {
      "byteLength": 36280312,
      "uri": "scene.bin"
    }
  ],
  "materials": [
    {
      "doubleSided": true,
      "name": "Scene_-_Root",
      "pbrMetallicRoughness": {
        "baseColorFactor": [
          1,
          1,
          1,
          1
        ],
        "metallicFactor": 0,
        "roughnessFactor": 0.59999999999999998
      }
    }
  ],
  "meshes": [
    {
      "primitives": [
        {
          "attributes": {
            "COLOR_0": 2,
            "NORMAL": 1,
            "POSITION": 0
          },
          "indices": 3,
          "material": 0,
          "mode": 4
        }
      ]
    },
    {
      "primitives": [
        {
          "attributes": {
            "COLOR_0": 6,
            "NORMAL": 5,
            "POSITION": 4
          },
          "indices": 7,
          "material": 0,
          "mode": 4
        }
      ]
    },
    {
      "primitives": [
        {
          "attributes": {
            "COLOR_0": 10,
            "NORMAL": 9,
            "POSITION": 8
          },
          "indices": 11,
          "material": 0,
          "mode": 4
        }
      ]
    },
    {
      "primitives": [
        {
          "attributes": {
            "COLOR_0": 14,
            "NORMAL": 13,
            "POSITION": 12
          },
          "indices": 15,
          "material": 0,
          "mode": 4
        }
      ]
    },
    {
      "primitives": [
        {
          "attributes": {
            "COLOR_0": 18,
            "NORMAL": 17,
            "POSITION": 16
          },
          "indices": 19,
          "material": 0,
          "mode": 4
        }
      ]
    },
    {
      "primitives": [
        {
          "attributes": {
            "COLOR_0": 22,
            "NORMAL": 21,
            "POSITION": 20
          },
          "indices": 23,
          "material": 0,
          "mode": 4
        }
      ]
    },
    {
      "primitives": [
        {
          "attributes": {
            "COLOR_0": 26,
            "NORMAL": 25,
            "POSITION": 24
          },
          "indices": 27,
          "material": 0,
          "mode": 4
        }
      ]
    },
    {
      "primitives": [
        {
          "attributes": {
            "COLOR_0": 30,
            "NORMAL": 29,
            "POSITION": 28
          },
          "indices": 31,
          "material": 0,
          "mode": 4
        }
      ]
    },
    {
      "primitives": [
        {
          "attributes": {
            "COLOR_0": 34,
            "NORMAL": 33,
            "POSITION": 32
          },
          "indices": 35,
          "material": 0,
          "mode": 4
        }
      ]
    },
    {
      "primitives": [
        {
          "attributes": {
            "COLOR_0": 38,
            "NORMAL": 37,
            "POSITION": 36
          },
          "indices": 39,
          "material": 0,
          "mode": 4
        }
      ]
    }
  ],
  "nodes": [
    {
      "children": [
        1
      ],
      "name": "RootNode (gltf orientation matrix)",
      "rotation": [
        -0.70710678118654746,
        -0,
        -0,
        0.70710678118654757
      ]
    },
    {
      "children": [
        2
      ],
      "name": "RootNode (model correction matrix)"
    },
    {
      "children": [
        3
      ],
      "matrix": [
        1,
        0,
        0,
        0,
        0,
        1,
        0,
        0,
        0,
        0,
        1,
        0,
        -10.887417793273926,
        -5.4349889755249023,
        -6.633537769317627,
        1
      ],
      "name": "yuna.obj.cleaner.materialmerger.gles"
    },
    {
      "children": [
        4,
        5,
        6,
        7,
        8,
        9,
        10,
        11,
        12,
        13
      ],
      "name": ""
    },
    {
      "mesh": 0,
      "name": ""
    },
    {
      "mesh": 1,
      "name": ""
    },
    {
      "mesh": 2,
      "name": ""
    },
    {
      "mesh": 3,
      "name": ""
    },
    {
      "mesh": 4,
      "name": ""
    },
    {
      "mesh": 5,
      "name": ""
    },
    {
      "mesh": 6,
      "name": ""
    },
    {
      "mesh": 7,
      "name": ""
    },
    {
      "mesh": 8,
      "name": ""
    },
    {
      "mesh": 9,
      "name": ""
    }
  ],
  "scene": 0,
  "scenes": [
    {
      "name": "OSG_Scene",
      "nodes": [
        0
      ]
    }
  ]
}

